<!DOCTYPE svg PUBLIC "-//W3C//DTD SVG 20010904//EN" "http://www.w3.org/TR/2001/REC-SVG-20010904/DTD/svg10.dtd">
<svg version="1.0" xmlns="http://www.w3.org/2000/svg" width="200px" height="200px" viewBox="0 0 2000 2000" preserveAspectRatio="xMidYMid meet">
<g id="layer101" fill="#21293d" stroke="none">
<path d="M696 1330 c-24 -37 -30 -40 -70 -40 -28 0 -52 -7 -67 -19 l-24 -19 0 -242 0 -242 24 -19 c19 -16 39 -19 112 -19 135 0 129 -13 129 280 0 229 -1 241 -21 261 l-20 20 25 34 c14 19 26 36 26 39 0 3 -20 6 -44 6 -40 0 -46 -3 -70 -40z m24 -320 l0 -210 -50 0 -50 0 0 210 0 210 50 0 50 0 0 -210z"/>
<path d="M909 1271 l-24 -19 0 -242 0 -242 24 -19 c19 -16 39 -19 112 -19 135 0 129 -13 129 280 0 293 6 280 -129 280 -73 0 -93 -3 -112 -19z m161 -261 l0 -210 -50 0 -50 0 0 210 0 210 50 0 50 0 0 -210z"/>
<path d="M1250 1270 c-16 -16 -20 -33 -20 -90 l0 -70 39 0 40 0 3 53 3 52 45 0 45 0 3 -77 3 -78 -68 0 c-110 0 -113 -4 -113 -165 0 -165 0 -165 132 -165 134 0 128 -13 128 280 0 294 6 280 -130 280 -77 0 -93 -3 -110 -20z m155 -370 l0 -95 -47 -3 -48 -3 0 95 c0 103 2 106 60 103 l35 -2 0 -95z"/>
</g>
<g id="layer102" fill="#ff780a" stroke="none">
<path d="M608 1677 l-387 -222 2 -455 2 -454 387 -224 388 -224 387 224 388 223 2 455 2 455 -377 217 c-207 119 -384 219 -392 222 -9 4 -176 -87 -402 -217z m722 -111 l315 -182 0 -383 0 -384 -310 -179 c-170 -99 -317 -182 -326 -185 -8 -2 -159 79 -335 180 l-319 185 0 383 0 383 315 182 c173 101 322 183 330 183 8 0 157 -82 330 -183z"/>
</g>


</svg>