<!DOCTYPE svg PUBLIC "-//W3C//DTD SVG 20010904//EN" "http://www.w3.org/TR/2001/REC-SVG-20010904/DTD/svg10.dtd">
<svg version="1.0" xmlns="http://www.w3.org/2000/svg" width="200px" height="200px" viewBox="0 0 2000 2000" preserveAspectRatio="xMidYMid meet">
<g id="layer101" fill="#21293d" stroke="none">
<path d="M642 1592 l-342 -197 1 -400 0 -400 340 -195 c187 -107 345 -194 351 -192 6 2 161 89 344 195 l334 192 0 400 0 400 -312 180 c-171 99 -325 187 -342 197 l-32 16 -342 -196z"/>
</g>
<g id="layer102" fill="#ff780a" stroke="none">
<path d="M642 1592 l-342 -197 1 -400 0 -400 340 -195 c187 -107 345 -194 351 -192 6 2 161 89 344 195 l334 192 0 400 0 400 -312 180 c-171 99 -325 187 -342 197 l-32 16 -342 -196z m154 -294 c-27 -38 -29 -48 -12 -67 14 -15 16 -48 16 -229 0 -253 5 -242 -111 -242 -122 0 -119 -6 -119 245 0 192 1 206 20 225 13 13 33 20 59 20 34 0 44 5 67 35 21 28 33 35 61 35 35 0 35 0 19 -22z m292 -64 c22 -15 22 -19 22 -226 0 -258 5 -248 -116 -248 -117 0 -114 -7 -114 247 0 247 -2 243 113 243 49 0 80 -5 95 -16z m302 -4 c19 -19 20 -33 20 -223 0 -254 3 -247 -115 -247 -110 0 -115 6 -115 145 0 129 5 137 94 143 l66 4 0 69 0 69 -45 0 -45 0 0 -45 c0 -45 0 -45 -35 -45 l-35 0 0 55 c0 80 18 95 115 95 62 0 79 -4 95 -20z"/>
</g>
<g id="layer103" fill="#ffffff" stroke="none">
<path d="M695 1495 l-280 -162 0 -338 0 -337 284 -165 c240 -139 288 -163 305 -154 12 5 140 79 286 163 l265 154 0 339 0 339 -280 162 c-154 90 -284 163 -290 163 -5 0 -136 -74 -290 -164z m101 -197 c-27 -38 -29 -48 -12 -67 14 -15 16 -48 16 -229 0 -253 5 -242 -111 -242 -122 0 -119 -6 -119 245 0 192 1 206 20 225 13 13 33 20 59 20 34 0 44 5 67 35 21 28 33 35 61 35 35 0 35 0 19 -22z m292 -64 c22 -15 22 -19 22 -226 0 -258 5 -248 -116 -248 -117 0 -114 -7 -114 247 0 247 -2 243 113 243 49 0 80 -5 95 -16z m302 -4 c19 -19 20 -33 20 -223 0 -254 3 -247 -115 -247 -110 0 -115 6 -115 145 0 129 5 137 94 143 l66 4 0 69 0 69 -45 0 -45 0 0 -45 c0 -45 0 -45 -35 -45 l-35 0 0 55 c0 80 18 95 115 95 62 0 79 -4 95 -20z"/>
<path d="M642 1003 l3 -188 40 0 40 0 3 188 2 187 -45 0 -45 0 2 -187z"/>
<path d="M952 1003 l3 -188 40 0 40 0 3 188 2 187 -45 0 -45 0 2 -187z"/>
<path d="M1252 903 l3 -88 40 0 40 0 3 88 3 87 -46 0 -46 0 3 -87z"/>
</g>


</svg>